<?xml version="1.0" encoding="UTF-8" standalone="no"?>
<svg
   xmlns:dc="http://purl.org/dc/elements/1.1/"
   xmlns:cc="http://creativecommons.org/ns#"
   xmlns:rdf="http://www.w3.org/1999/02/22-rdf-syntax-ns#"
   xmlns:svg="http://www.w3.org/2000/svg"
   xmlns="http://www.w3.org/2000/svg"
   xmlns:sodipodi="http://sodipodi.sourceforge.net/DTD/sodipodi-0.dtd"
   xmlns:inkscape="http://www.inkscape.org/namespaces/inkscape"
   width="24"
   height="24"
   viewBox="0 0 24 24"
   version="1.1"
   id="svg4550"
   sodipodi:docname="format-title3.svg"
   inkscape:version="0.92.3 (2405546, 2018-03-11)">
  <metadata
     id="metadata4556">
    <rdf:RDF>
      <cc:Work
         rdf:about="">
        <dc:format>image/svg+xml</dc:format>
        <dc:type
           rdf:resource="http://purl.org/dc/dcmitype/StillImage" />
      </cc:Work>
    </rdf:RDF>
  </metadata>
  <defs
     id="defs4554" />
  <sodipodi:namedview
     pagecolor="#ffffff"
     bordercolor="#666666"
     borderopacity="1"
     objecttolerance="10"
     gridtolerance="10"
     guidetolerance="10"
     inkscape:pageopacity="0"
     inkscape:pageshadow="2"
     inkscape:window-width="1920"
     inkscape:window-height="1057"
     id="namedview4552"
     showgrid="false"
     inkscape:zoom="22.627417"
     inkscape:cx="17.00319"
     inkscape:cy="5.3932464"
     inkscape:window-x="1912"
     inkscape:window-y="-8"
     inkscape:window-maximized="1"
     inkscape:current-layer="svg4550" />
  <path
     d="M 16,4 H 7 v 14 h 9 c 0,-14 0,0 0,-14 z m -6,0 h 3 c 0,5.5 0.02766,4.5003825 0,5.5 h -3 z m 3,14 h -3 v -5.5 h 3 c 0,5.5 0,0 0,5.5 z"
     id="path4546"
     style="fill:#000000;fill-opacity:1;fill-rule:nonzero"
     inkscape:connector-curvature="0"
     sodipodi:nodetypes="ccccccccccccccc" />
  <path
     d="m 21.8,16.4 v -1.2 c 0,-0.664 -0.536,-1.2 -1.2,-1.2 0.664,0 1.2,-0.536 1.2,-1.2 V 11.6 C 21.8,10.712 21.08,10 20.2,10 H 17 v 1.6 h 3.2 v 1.6 h -1.6 v 1.6 h 1.6 v 1.6 H 17 V 18 h 3.2 c 0.88,0 1.6,-0.712 1.6,-1.6 z"
     id="path4"
     inkscape:connector-curvature="0"
     sodipodi:nodetypes="sscsssccccccccccss"
     style="stroke-width:0.80000019" />
</svg>
